<svg width="512" height="512" viewBox="0 0 512 512" fill="none" xmlns="http://www.w3.org/2000/svg">
<rect width="512" height="512" fill="#0F2D52"/>
<g clip-path="url(#clip0_606_337)">
<path d="M269.572 268.624H266.104C265.36 268.624 264.67 268.805 264.67 270.04V317.429C258.587 310.003 229.409 274.434 224.162 268.696C223.581 268.133 223.072 267.897 222.383 267.897C221.547 267.897 220.948 268.46 220.948 269.241V328.705C220.948 329.776 221.329 330.23 222.274 330.23H225.923C227.085 330.23 227.176 329.522 227.176 328.796V281.642C233.349 289.068 263.49 325.328 267.448 330.157C267.829 330.63 268.338 331.102 269.264 331.102C270.444 331.102 270.861 330.339 270.861 329.685V270.312C270.916 269.604 270.916 268.624 269.572 268.624Z" fill="white"/>
<path d="M330.125 268.624H327.003C325.732 268.624 325.477 269.259 325.477 270.494V300.017H288.001V270.403C288.001 269.277 287.765 268.624 286.585 268.624H283.371C282.155 268.624 281.774 269.06 281.774 270.403V328.614C281.774 329.885 282.082 330.212 283.281 330.212H286.476C287.566 330.212 288.001 329.812 288.001 328.778V305.9H325.477V328.796C325.477 329.976 326.077 330.23 327.003 330.23H330.035C331.269 330.23 331.723 330.103 331.723 328.796V270.494C331.723 269.168 331.505 268.624 330.125 268.624Z" fill="white"/>
<path d="M393.057 268.624H389.317C388.609 268.624 388.282 269.205 387.937 269.967L366.149 319.445L343.071 269.55C342.745 268.733 342.127 268.624 341.51 268.624H337.77C337.425 268.624 337.043 268.624 336.789 268.969C336.517 269.35 336.662 269.804 336.844 270.312C337.951 272.709 364.097 329.177 364.605 330.176C364.751 330.593 365.114 331.556 366.167 331.556C367.057 331.556 367.383 330.975 367.71 330.23C368.237 329.159 392.839 273.472 393.911 271.039C394.328 269.822 394.455 269.405 394.165 268.987C393.892 268.624 393.493 268.624 393.057 268.624Z" fill="white"/>
<path d="M447.528 327.779L447.419 327.634C442.026 320.098 433.493 308.369 431.35 305.428C439.43 302.523 444.06 296.222 444.06 288.015C444.06 276.776 435.417 268.605 423.506 268.605H400.247C399.975 268.605 399.104 268.714 399.104 270.04V328.796C399.104 329.231 399.104 330.23 400.356 330.23H404.097C405.241 330.23 405.349 329.522 405.349 328.796V306.626H424.886L441.064 329.231C441.518 329.921 442.063 330.23 442.825 330.23H446.384C446.856 330.23 447.982 330.23 447.982 329.068C448 328.469 447.837 328.233 447.528 327.779ZM405.349 274.325H423.234C431.84 274.325 438.104 280.117 438.104 288.124C438.104 296.077 432.24 301.034 422.798 301.034H405.349V274.325Z" fill="white"/>
<path d="M70.3368 280.843C76.2377 278.973 147.376 253.463 147.376 253.463C171.743 245.746 164.026 221.38 164.026 221.38L150.154 180C150.154 180 161.23 180.073 163.391 186.918C164.081 189.097 173.45 216.277 173.45 216.277C185.052 252.9 150.536 263.504 150.536 263.504L64 293.88C64 293.88 64.4176 282.714 70.3368 280.843Z" fill="white"/>
<path d="M343.888 202.024C337.969 203.894 207.857 245.946 207.857 245.946C183.49 253.681 191.207 278.047 191.207 278.047L196.799 295.696C196.799 295.696 185.724 295.623 183.563 288.778C182.873 286.599 181.784 283.131 181.784 283.131C170.163 246.509 204.68 235.923 204.68 235.923L350.225 188.988C350.225 188.969 349.808 200.154 343.888 202.024Z" fill="white"/>
</g>
<defs>
<clipPath id="clip0_606_337">
<rect width="384" height="151.556" fill="white" transform="translate(64 180)"/>
</clipPath>
</defs>
</svg>
